<svg xmlns="http://www.w3.org/2000/svg" viewBox="0 0 120 170" width="120" height="170" role="img" aria-label="Daun tembakau Deli">
  <defs>
    <linearGradient id="lf" x1="0" y1="0" x2="0.2" y2="1">
      <stop offset="0" stop-color="#86bd45"/>
      <stop offset="0.5" stop-color="#5d932f"/>
      <stop offset="1" stop-color="#c79a35"/>
    </linearGradient>
  </defs>
  <path d="M60 5 C97 30 112 92 60 165 C8 92 23 30 60 5 Z" fill="url(#lf)" stroke="#3c6422" stroke-width="1.6"/>
  <path d="M60 12 L60 156" stroke="#37591f" stroke-width="2.2" fill="none" opacity="0.65" stroke-linecap="round"/>
  <g stroke="#37591f" stroke-width="1.3" fill="none" opacity="0.5" stroke-linecap="round">
    <path d="M60 42 C47 47 37 55 29 67"/><path d="M60 42 C73 47 83 55 91 67"/>
    <path d="M60 72 C45 78 34 89 26 103"/><path d="M60 72 C75 78 86 89 94 103"/>
    <path d="M60 102 C49 108 41 118 35 132"/><path d="M60 102 C71 108 79 118 85 132"/>
  </g>
</svg>
